# xmcd
#
# Track frame offsets: 
#        150
#        11046
#        25877
#        42002
#        56316
#        68140
#        84991
#        94474
#        113460
#        127467
#        143905
#        158803
#        172159
#
# Disc length: 2610 seconds
#
# Revision: 0
# Processed by: cddbd v1.5.1PL0 Copyright (c) Steve Scherf et al.
# Submitted via: ExactAudioCopy v0.95a5
#
DISCID=ad0a300d
DTITLE=Reinhard Mey - Live CD 1
DYEAR=2003
DGENRE=A Cappella
TTITLE0=Ich wollte wie Orpheus singen
TTITLE1=Das Cannape
TTITLE2=Das Lied von der Spieluhr
TTITLE3=Klagelied eines sentimentalen Programmierers
TTITLE4=Fast ein Liebeslied
TTITLE5=Ankomme Freitag den 13.
TTITLE6=Irgendwann, Irgendwo
TTITLE7=Der Schuttabladeplatz der Zeit
TTITLE8=Christine
TTITLE9=Heute noch
TTITLE10=In meinem Garten
TTITLE11=Cétait une bonne annee je crois
TTITLE12=Epitaph auf Balthasar
EXTD=
EXTT0=
EXTT1=
EXTT2=
EXTT3=
EXTT4=
EXTT5=
EXTT6=
EXTT7=
EXTT8=
EXTT9=
EXTT10=
EXTT11=
EXTT12=
PLAYORDER=
